<?xml version="1.0" encoding="UTF-8"?>
<svg id="Layer_2" data-name="Layer 2" xmlns="http://www.w3.org/2000/svg" viewBox="0 0 375 216">
  <defs>
    <style>
      .cls-1 {
        fill: #000000;
      }

      .cls-1, .cls-2 {
        font-family: Jura-Bold, Jura;
        font-size: 50px;
        font-variation-settings: 'wght' 700;
        font-weight: 500;
      }

      .cls-3 {
        opacity: .35;
        stroke: #020202;
      }

      .cls-3, .cls-4 {
        fill: none;
        stroke-miterlimit: 10;
        stroke-width: 2px;
      }

      .cls-4 {
        stroke: #609e37;
      }

      .cls-5 {
        letter-spacing: 0em;
      }

      .cls-2 {
        fill: #000000;
        opacity: .2;
      }

      .cls-6 {
        letter-spacing: 0em;
      }
    </style>
  </defs>
  <path id="_Path_Shadow" data-name="&amp;lt;Path&amp;gt;Shadow" class="cls-3" d="m186.11,211.31c-2.81-2.75-6.11-7.88-8-21-.54-3.76-1.32-9.36-1-17,.27-6.55,1.09-8.29,2-16,.91-7.76.95-13.32,1-22,.06-9.98.1-16.39-1-25-1.22-9.57-1.96-15.33-5-22-1.58-3.46-8.39-19.48-18-21-3-.47-6,0-6,0-.97.15-2.67.5-8,3-4.11,1.93-4.21,2.24-8,4-1.54.71-1.37.59-7,3-5.74,2.46-5.69,2.49-7,3-3.67,1.43-6.47,2.11-10,3-5.55,1.39-8.33,2.09-11,2-3.92-.13-6.89-1.21-9-2-4.03-1.51-6.7-3.38-9-5-1.87-1.31-4.86-3.44-8-7-2.26-2.56-3.6-4.73-5-7-2.05-3.31-3.2-5.84-4-8-1.51-4.05-1.4-5.73-1-7,.19-.59.66-2.09,2-3,1.87-1.27,4.08-.47,7,0,4.16.67,7.41.3,10,0,5.67-.65,9.81-2.45,11-3,5.18-2.36,4.75-3.75,11-7,4.38-2.28,8.14-3.43,10-4,2.6-.79,5.38-1.63,9-2,2.17-.22,7.39-.71,13,1,3.7,1.12,7.52,4.1,15,10,6.32,4.98,11,9,11,9,2.85,2.44,5.17,4.54,9,7,2.96,1.9,5.05,2.9,5,3-.11.22-10.44-3.36-22-10-3.68-2.11-6.91-4.2-12-5-3.87-.61-7.22-.22-9,0-2.75.34-5.51.97-11,3-10.44,3.85-10.18,5.12-17,7-6.08,1.68-10.96,1.95-12,2-4.69.23-6.95-.3-7,0-.12.69,11.62,6.36,23,3,3.99-1.18,3.92-2.28,13-6,5.92-2.43,8.88-3.64,12-4,5.18-.6,9.12.6,17,3,6.11,1.86,9.75,3,14,6,2.18,1.54,5.46,3.85,8,8,2.08,3.4,1.81,4.99,4,13,2.46,9,3.82,13.78,6,14,2,.2,3.82-3.55,6-8,1.72-3.51,3.32-6.79,3-11-.16-2.13-.62-1.92-2-7-.72-2.66-1.7-6.26-2-10-.11-1.39-.27-4.44,1-11,1.46-7.55,2.33-12.07,5-17,4.12-7.62,10.03-11.63,15-15,2.12-1.44,9.71-6.39,21-9,10.67-2.47,19.5-1.66,24-1,5.91.87,16.69,2.45,26,10,2.78,2.25,3.6,3.56,8,7,4.64,3.63,7.34,4.45,14,9,4.51,3.09,8.49,5.84,8,7-.49,1.15-4.65-.95-11,0-4.8.72-8.32,2.81-12,5-1.75,1.04-4.76,2.85-8,6-3.55,3.45-6,6-7,7s-2.16,2.09-10,6c-8.91,4.45-9,5-12,6-.6.22-4.07,1.14-11,3-5.42,1.45-6.4,1.7-8,2-3.44.65-6.3,1.19-10,1-3.75-.19-7.49-.38-11-3-.84-.63-3.72-2.85-5-7-.3-.99-1.31-4.4,0-8,1.6-4.41,5.66-6.39,11-9,4.76-2.32,8.87-3.29,12-4,4.27-.97,4.52-.61,12-2,7.5-1.4,9.42-2.17,11-3,4.34-2.29,7.28-5.61,7-6-.24-.34-2.73,1.71-7,3-3.04.92-5.11.88-9,1-7.25.23-10.91.34-15,1-3.64.59-8.02,1.33-13,4-1.88,1-5.54,3.01-9,7-3.62,4.17-5.07,8.28-6,11-.8,2.33-2.62,8.39-2,16,.38,4.69.37,6.07,0,7-2,5-1.67,7.37-4,13-1.66,4.02-2.11,7.34-3,14-.47,3.53-.37,4.19-1,15-.43,7.28-.64,10.91-1,15-.36,4.06-.86,9.7-2,17-.86,5.49-1.34,6.04-2,11-.71,5.3-.89,9.47-1,12-.2,4.78-.3,7.16,0,10,.21,2.01.81,4.67,2,10,.95,4.24,1.42,6.35,2,8,1.23,3.48,2.5,5.64,2,6-.55.4-2.75-1.76-3-2Z"/>
  <path id="_Path_Foreground" data-name="&amp;lt;Path&amp;gt;Foreground" class="cls-4" d="m187.11,210.31c-2.81-2.75-6.11-7.88-8-21-.54-3.76-1.32-9.36-1-17,.27-6.55,1.09-8.29,2-16,.91-7.76.95-13.32,1-22,.06-9.98.1-16.39-1-25-1.22-9.57-1.96-15.33-5-22-1.58-3.46-8.39-19.48-18-21-3-.47-6,0-6,0-.97.15-2.67.5-8,3-4.11,1.93-4.21,2.24-8,4-1.54.71-1.37.59-7,3-5.74,2.46-5.69,2.49-7,3-3.67,1.43-6.47,2.11-10,3-5.55,1.39-8.33,2.09-11,2-3.92-.13-6.89-1.21-9-2-4.03-1.51-6.7-3.38-9-5-1.87-1.31-4.86-3.44-8-7-2.26-2.56-3.6-4.73-5-7-2.05-3.31-3.2-5.84-4-8-1.51-4.05-1.4-5.73-1-7,.19-.59.66-2.09,2-3,1.87-1.27,4.08-.47,7,0,4.16.67,7.41.3,10,0,5.67-.65,9.81-2.45,11-3,5.18-2.36,4.75-3.75,11-7,4.38-2.28,8.14-3.43,10-4,2.6-.79,5.38-1.63,9-2,2.17-.22,7.39-.71,13,1,3.7,1.12,7.52,4.1,15,10,6.32,4.98,11,9,11,9,2.85,2.44,5.17,4.54,9,7,2.96,1.9,5.05,2.9,5,3-.11.22-10.44-3.36-22-10-3.68-2.11-6.91-4.2-12-5-3.87-.61-7.22-.22-9,0-2.75.34-5.51.97-11,3-10.44,3.85-10.18,5.12-17,7-6.08,1.68-10.96,1.95-12,2-4.69.23-6.95-.3-7,0-.12.69,11.62,6.36,23,3,3.99-1.18,3.92-2.28,13-6,5.92-2.43,8.88-3.64,12-4,5.18-.6,9.12.6,17,3,6.11,1.86,9.75,3,14,6,2.18,1.54,5.46,3.85,8,8,2.08,3.4,1.81,4.99,4,13,2.46,9,3.82,13.78,6,14,2,.2,3.82-3.55,6-8,1.72-3.51,3.32-6.79,3-11-.16-2.13-.62-1.92-2-7-.72-2.66-1.7-6.26-2-10-.11-1.39-.27-4.44,1-11,1.46-7.55,2.33-12.07,5-17,4.12-7.62,10.03-11.63,15-15,2.12-1.44,9.71-6.39,21-9,10.67-2.47,19.5-1.66,24-1,5.91.87,16.69,2.45,26,10,2.78,2.25,3.6,3.56,8,7,4.64,3.63,7.34,4.45,14,9,4.51,3.09,8.49,5.84,8,7-.49,1.15-4.65-.95-11,0-4.8.72-8.32,2.81-12,5-1.75,1.04-4.76,2.85-8,6-3.55,3.45-6,6-7,7s-2.16,2.09-10,6c-8.91,4.45-9,5-12,6-.6.22-4.07,1.14-11,3-5.42,1.45-6.4,1.7-8,2-3.44.65-6.3,1.19-10,1-3.75-.19-7.49-.38-11-3-.84-.63-3.72-2.85-5-7-.3-.99-1.31-4.4,0-8,1.6-4.41,5.66-6.39,11-9,4.76-2.32,8.87-3.29,12-4,4.27-.97,4.52-.61,12-2,7.5-1.4,9.42-2.17,11-3,4.34-2.29,7.28-5.61,7-6-.24-.34-2.73,1.71-7,3-3.04.92-5.11.88-9,1-7.25.23-10.91.34-15,1-3.64.59-8.02,1.33-13,4-1.88,1-5.54,3.01-9,7-3.62,4.17-5.07,8.28-6,11-.8,2.33-2.62,8.39-2,16,.38,4.69.37,6.07,0,7-2,5-1.67,7.37-4,13-1.66,4.02-2.11,7.34-3,14-.47,3.53-.37,4.19-1,15-.43,7.28-.64,10.91-1,15-.36,4.06-.86,9.7-2,17-.86,5.49-1.34,6.04-2,11-.71,5.3-.89,9.47-1,12-.2,4.78-.3,7.16,0,10,.21,2.01.81,4.67,2,10,.95,4.24,1.42,6.35,2,8,1.23,3.48,2.5,5.64,2,6-.55.4-2.75-1.76-3-2Z"/>
  <text id="GIVE_FOR_LIFE_SHADOW" data-name="GIVE FOR LIFE SHADOW" class="cls-2" transform="translate(-2.65 147.4)"><tspan x="0" y="0">GIVE </tspan><tspan class="cls-5" x="142.83" y="0">F</tspan><tspan class="cls-6" x="173.4" y="0">OR LIFE</tspan></text>
  <text id="GIVE_FOR_LIFE" data-name="GIVE FOR LIFE" class="cls-1" transform="translate(-1.56 145.98)"><tspan x="0" y="0">GIVE </tspan><tspan class="cls-5" x="142.83" y="0">F</tspan><tspan class="cls-6" x="173.4" y="0">OR LIFE</tspan></text>
</svg>